<?xml version="1.0" encoding="utf-8"?>
<!-- Generator: Adobe Illustrator 19.2.1, SVG Export Plug-In . SVG Version: 6.00 Build 0)  -->
<svg version="1.1" xmlns="http://www.w3.org/2000/svg" xmlns:xlink="http://www.w3.org/1999/xlink" x="0px" y="0px"
	 viewBox="0 0 118.3 113.3" style="enable-background:new 0 0 118.3 113.3;" xml:space="preserve">
<style type="text/css">
	.st0{fill:none;stroke:#4BB6A9;stroke-width:1.5;stroke-miterlimit:10;}
</style>
<g id="Слой_1">
	<path class="st0" d="M49,64.9c0,0,9.8,0.8,20.4-10.7c0,0,5.6-3.7,1.9,4.5c-2.6,5.8-14,12.4-14,12.4l-5.9,12.4c0,0-0.8,16-4.3,21.3
		c0,0-3.6,3.4-17.9,4.7c0,0-0.6-4.8,4.4-6.1l4.4-1.2c0,0,3.6,0.4,3.3-9.5l-7.1,2.5c0,0-7,3.8-10.8-3.1c0,0-5.3-10.3-5.3-12.8
		c0,0,2.7-3,6.4,1.3l5.1,7.4c0,0,6.6-0.6,9.4-7.4l1.7-9.7c0,0-12.6-9-14.2-14.1c0,0-1.7-1.7,1.5-4.6C28,52.4,37.1,65,49,64.9z"/>
	<line class="st0" x1="34.1" y1="69.9" x2="25.3" y2="81.9"/>
	<path class="st0" d="M66.6,57c-3.7-7.3,0.7-11.1,0.7-11.1S58.2,20.5,61.2,13s5.2-3.9,5.2-3.9s0,0,0.9,10.9s10.5,22.6,10.5,22.6
		s6.8,5.6,34.4,0c0,0,6.3-2,1.8,5.1s-19.9,6.1-27.1,6.5c0,0-4.1,5.8-2.5,17.5s13.8,24.4,13.8,24.4s7.5,5.3,6,12.8c0,0-2.3,1.1-4.1,0
		S86.5,95.8,86.5,95.8S76,85.1,74,80c0,0-5.6,6.9-2.4,12.5l9.1,9c0,0,3.8,1.8,2,6.6c0,0-12.3-2.4-22.7-14.6c0,0-1.8-5,0.5-10.9
		s6.2-11.5,6.2-11.5s3.1-4.8,1-7.7"/>
	<path class="st0" d="M92.5,27.8c0,0,11.2-1.9,9.9-12.3c0,0,12.8,13.4-9.9,12.8"/>
	<path class="st0" d="M55.4,49.1c0,0,3.3-2.4,1.9-6.8c0,0,14.5,6.9-1.2,7.7l-0.8-0.4"/>
	<path class="st0" d="M42.4,52.6c0,0-4-1.1-4.2-5.7c0,0-11.1,11.6,3.8,6.8l0.6-0.7"/>
	<ellipse transform="matrix(0.9875 -0.1579 0.1579 0.9875 -1.7514 6.6896)" class="st0" cx="41.2" cy="14.4" rx="8.6" ry="10.9"/>
	<ellipse transform="matrix(0.9875 -0.1579 0.1579 0.9875 -7.8701 8.5245)" class="st0" cx="49.7" cy="53.8" rx="6.7" ry="8.9"/>
	<ellipse transform="matrix(0.4778 -0.8784 0.8784 0.4778 15.7122 91.6823)" class="st0" cx="85" cy="32.6" rx="9.6" ry="7"/>
	<path class="st0" d="M46.1,18.6c0,0-1.9,6.3-7.6,0.7"/>
	<path class="st0" d="M79.9,35.2c0,0,0.8,5.7,6.5,1.7"/>
	<path class="st0" d="M53.1,57.8c0,0-1.3,4.3-5.1,0.5"/>
</g>
<g id="Слой_2">
	<path class="st0" d="M21.2,87.8l-7.5,11.9c0,0-2.8,5.5,1.4,8.4c0,0,9-10.4,10.8-12.4"/>
</g>
<g id="Слой_3">
	<path class="st0" d="M66.7,99.8l-0.6,9.8c0,0-5.4,0.5-7.4-5.7l-4.3-26.5"/>
</g>
<g id="Слой_4">
	<path class="st0" d="M35.7,45.1c0,0,0.9-4.3-3.5-2.5L8.1,54.1c0,0-3.7,3-3.4-1.7s5-8.4,5-8.4s10.9-7.8,30.1-14.1
		c0,0,13-5.4,20.7-11"/>
</g>
<g id="Слой_5">
	<path class="st0" d="M67,14.8L76.7,8c0,0,3.3,0.9,1.1,6.8l-9.6,8.7"/>
</g>
<g id="Слой_6">
	<path class="st0" d="M62,29c0,0-4.4,2.5-2.6,10.4"/>
	<line class="st0" x1="15.7" y1="84.6" x2="12.8" y2="79"/>
	<line class="st0" x1="13.8" y1="85.9" x2="11.9" y2="82"/>
	<path class="st0" d="M89.7,65.4c0,0,0.5-4.2,5.6-6.6"/>
	<path class="st0" d="M92.8,65.2c0,0,0.4-2.3,2.8-3.6"/>
</g>
</svg>
