<?xml version="1.0" encoding="utf-8"?>
<!-- Generator: Adobe Illustrator 19.2.1, SVG Export Plug-In . SVG Version: 6.00 Build 0)  -->
<svg version="1.1" id="Слой_1" xmlns="http://www.w3.org/2000/svg" xmlns:xlink="http://www.w3.org/1999/xlink" x="0px" y="0px"
	 viewBox="0 0 118.3 113.3" style="enable-background:new 0 0 118.3 113.3;" xml:space="preserve">
<style type="text/css">
	.st0{fill:none;stroke:#4BB6A9;stroke-width:1.5;stroke-miterlimit:10;}
	.st1{fill:none;stroke:#50ADA2;stroke-width:1.5;stroke-miterlimit:10;}
</style>
<image style="display:none;overflow:visible;" width="300" height="170" xlink:href="Работа/2020/Невесомость/Фин/Адаптив/Категории/5.jpg"  transform="matrix(1 0 0 1 -313.7282 -19.8001)">
</image>
<g id="Слой_6">
	<path class="st0" d="M97.9,34.2c0,0,4.2-0.6,7.8,3.8"/>
	<path class="st0" d="M98.9,37.2c0,0,2.3-0.2,4.2,1.8"/>
</g>
<g id="Слой_6_1_">
	<path class="st0" d="M15.9,83.7c0,0-3.8-1.9-4.2-7.5"/>
	<path class="st0" d="M16.8,80.8c0,0-2-1.2-2.4-3.9"/>
</g>
<path class="st0" d="M41.6,31.7c0,0,11.6-1.9,19.6-11.6c0,0,2.8,0.1,1.6,5c0,0-8.1,10.4-14.3,14l-5,12.1c0,0-0.6,15.1-3.5,19.4
	s-19.5,5.3-19.5,5.3s-1.9-4,3.5-5.6c0,0,6.5-1.8,8-3.9c1.5-2.1,1.4-7.7,1.4-7.7L24.7,63c0,0-7,2.8-10.3-2.9L9.9,47.9
	c0,0-1.9-5.9,5.3-2.5l5.8,8.9c0,0,2.6,1.1,4.4-1l5.6-7c0,0,1.6-4.4,1.4-8.4c0,0-12.5-8.3-14.7-13.9c0,0-2-7.3,2.9-5.1
	C20.4,18.9,26.1,30.3,41.6,31.7z"/>
<path class="st0" d="M74.7,56.2c0,0-11.6-1.9-19.6-11.6c0,0-2.8,0.1-1.6,5c0,0,8.1,10.4,14.2,14l5,12.1c0,0,0.6,15.1,3.5,19.4
	s19.5,5.3,19.5,5.3s1.9-4-3.5-5.6c0,0-6.5-1.8-8-3.9s-1.4-7.7-1.4-7.7l8.8,4.5c0,0,7,2.8,10.3-2.9l4.5-12.3c0,0,1.9-5.9-5.3-2.5
	l-5.8,8.9c0,0-2.6,1.1-4.4-1l-5.6-7c0,0-1.6-4.4-1.4-8.4c0,0,12.5-8.3,14.8-13.9c0,0,2-7.3-2.9-5.1C95.9,43.4,90.2,54.8,74.7,56.2z"
	/>
<ellipse transform="matrix(0.9875 -0.1579 0.1579 0.9875 -2.6974 6.6534)" class="st0" cx="40.5" cy="20.3" rx="6.7" ry="8.9"/>
<ellipse transform="matrix(0.2901 -0.957 0.957 0.2901 11.0242 105.3863)" class="st0" cx="76.5" cy="45.3" rx="8.9" ry="6.7"/>
<path class="st1" d="M38.6,24.7c0,0,3.3,3.6,6.3-1.3"/>
<path class="st1" d="M73.2,49.1c0,0,3.3,3.6,6.3-1.3"/>
<path class="st0" d="M45.8,15.4c0,0,3.8,3.2,0.9-6c0,0,7.6-0.9,7,6.1c0,0-3.4,3.2-6.9,2.8"/>
<path class="st0" d="M33.1,18.1c0,0-6.4-1.4-7-5.2c0,0-3.3,3.2,0,8.6c0,0,5.6,0.6,7.6-1.7"/>
</svg>
