<?xml version="1.0" encoding="utf-8"?>
<!-- Generator: Adobe Illustrator 19.2.1, SVG Export Plug-In . SVG Version: 6.00 Build 0)  -->
<svg version="1.1" id="Слой_1" xmlns="http://www.w3.org/2000/svg" xmlns:xlink="http://www.w3.org/1999/xlink" x="0px" y="0px"
	 viewBox="0 0 118.3 113.3" style="enable-background:new 0 0 118.3 113.3;" xml:space="preserve">
<style type="text/css">
	.st0{fill:none;stroke:#4BB6A9;stroke-width:1.5;stroke-miterlimit:10;}
	.st1{fill:none;stroke:#50ADA2;stroke-width:1.5;stroke-miterlimit:10;}
</style>
<image style="display:none;overflow:visible;" width="300" height="170" xlink:href="Работа/2020/Невесомость/Фин/Адаптив/Категории/5.jpg"  transform="matrix(1 0 0 1 -313.7282 -19.8001)">
</image>
<g id="Слой_6">
	<path class="st0" d="M102.6,34.6c0,0,1,4.1-2.9,8.2"/>
	<path class="st0" d="M99.8,35.9c0,0,0.5,2.3-1.3,4.4"/>
</g>
<g id="Слой_6_1_">
	<path class="st0" d="M20.8,42.1c0,0-3.7-2.1-4-7.7"/>
	<path class="st0" d="M21.8,39.2c0,0-2-1.2-2.3-4"/>
</g>
<path class="st0" d="M60.1,44.6c0,0,16.8-0.5,30.5-15.8c0,0,5.7,2.2,2.5,9.2c0,0-8.7,12.8-18.7,19.2c0,0,13.7,30.3,10.3,46.3
	c0,0-2,5.5-4.8,3.7c0,0-8.5-26-19-29.7s-20.5,30-20.5,30s-6.5-1.5-6.2-7.5c0,0,6.7-34.8,12-44.5c0,0-19.3-10.8-20-22.5
	c0,0,0-7.8,4.8-3.5C31.1,29.5,39.9,42.8,60.1,44.6z"/>
<path class="st0" d="M49.1,31.5c0,0,0.8,2-1.3,2.2c0,0-3.7,3-4.1-1.7c0,0-4.1,0.8-3.5-3.8c0,0-3.2-4-0.1-6.1c0,0-2-4.6,2.1-7
	c0,0-0.4-4.7,5.1-5c0,0,0.4-3.4,5.4-2.5c0,0,3.9-3.9,6.6-0.1c0,0,4.7-3.4,6.3,0.1c0,0,3.8-2.3,5.3,2.6c0,0,5.6-1.3,4.3,3.2
	c0,0,4.1,0.5,4,5.4c0,0,3.3,1.9,1.3,5.3c0,0,2.8,3.4-1.1,6.2c0,0,0.2,3.3-3.9,3.5c0,0-3.7,3.3-4.7,0.2l0.1-6.3c0,0-2.8-0.8-2-3.3
	c0,0-3.5,0.1-3.6-3.1c0,0-3.7,2.6-6.1,0.3c0,0-2.6,3.2-6.2,2.3c0,0,0.2,3.5-3.9,3.9C49.1,27.5,51.2,29.5,49.1,31.5z"/>
<circle class="st1" cx="59.9" cy="64.1" r="4.3"/>
<circle class="st1" cx="60.2" cy="52.9" r="2.7"/>
<circle class="st1" cx="60" cy="30.9" r="3.7"/>
<path class="st0" d="M65.2,36c0,0-4.8,5.2-10.6,0"/>
<path class="st0" d="M71.3,35.2c0,0-11.5,15.2-23.5-1.6"/>
</svg>
