<?xml version="1.0" encoding="utf-8"?>
<!-- Generator: Adobe Illustrator 19.2.1, SVG Export Plug-In . SVG Version: 6.00 Build 0)  -->
<svg version="1.1" id="Слой_1" xmlns="http://www.w3.org/2000/svg" xmlns:xlink="http://www.w3.org/1999/xlink" x="0px" y="0px"
	 viewBox="0 0 118.3 113.3" style="enable-background:new 0 0 118.3 113.3;" xml:space="preserve">
<style type="text/css">
	.st0{fill:none;stroke:#4BB6A9;stroke-width:1.5;stroke-miterlimit:10;}
</style>
<image style="display:none;overflow:visible;" width="300" height="170" xlink:href="Работа/2020/Невесомость/Фин/Адаптив/Категории/5.jpg"  transform="matrix(1 0 0 1 -313.7282 -19.8001)">
</image>
<g id="Слой_6">
	<path class="st0" d="M79.6,9.1c0,0,3.9,1.6,5,7.1"/>
	<path class="st0" d="M79,12.1c0,0,2.1,1,2.8,3.6"/>
</g>
<g id="Слой_6_1_">
	<path class="st0" d="M22.7,86.3c0,0-3.5-2.3-3.4-8"/>
	<path class="st0" d="M23.9,83.4c0,0-1.9-1.4-2-4.1"/>
</g>
<path class="st0" d="M65.4,43.9c10.8-10.4,2.4-29.4,2.4-29.4c-1.8-5.8,3.5-3,3.5-3C85.8,29.3,75.4,48,75.4,48
	c2,8.4-0.4,19.9-0.4,19.9c19.6-0.5,20.5,5.1,20.5,5.1c-3.5,17.3-14.4,28.5-14.4,28.5c-5.5-3.1-2.6-9.4-2.6-9.4l3.8-10.9
	c-4-2.9-14.6,0.5-14.6,0.5c-4.9,8-17.3,16-17.3,16c-3,1.8-7.3,0-7.3,0C34.7,92.7,27,78.6,27,78.6c2.6-5.4,8.4-1,8.4-1l7.4,8.3
	c1.6,1.8,5,0,5,0c4.1-4,8.3-12.3,8.3-12.3c2-6,0.4-17.9,0.4-17.9C49.5,55.9,45.9,54,45.9,54C27.6,44.5,27,35.4,27,35.4
	c0.4-4,6.6-1.4,6.6-1.4s-0.6,4.1,11,10.4s20.1,0,20.1,0L65.4,43.9z"/>
<ellipse transform="matrix(0.8979 -0.4403 0.4403 0.8979 -8.6617 28.4332)" class="st0" cx="57" cy="32.9" rx="8.6" ry="10.9"/>
<path class="st0" d="M62.9,35.5c0,0,0,6.6-7.1,2.9"/>
</svg>
